<?xml version="1.0" standalone="no"?>
<!DOCTYPE svg PUBLIC "-//W3C//DTD SVG 20010904//EN"
 "http://www.w3.org/TR/2001/REC-SVG-20010904/DTD/svg10.dtd">
<svg version="1.0" xmlns="http://www.w3.org/2000/svg"
 width="512.000000pt" height="512.000000pt" viewBox="0 0 512.000000 512.000000"
 preserveAspectRatio="xMidYMid meet">
<metadata>
Created by potrace 1.11, written by Peter Selinger 2001-2013
</metadata>
<g transform="translate(0.000000,512.000000) scale(0.100000,-0.100000)"
fill="#000000" stroke="none">
<path d="M2379 5116 c-2 -2 -40 -6 -83 -10 -44 -4 -82 -8 -85 -10 -3 -2 -31
-7 -61 -11 -30 -3 -75 -11 -100 -17 -25 -5 -56 -12 -70 -14 -52 -10 -264 -74
-269 -81 -5 -7 -24 -12 -58 -15 -7 -1 -13 -5 -13 -10 0 -4 -8 -8 -18 -8 -10 0
-22 -3 -26 -7 -4 -5 -11 -8 -14 -8 -18 -2 -52 -17 -52 -24 0 -4 -6 -8 -13 -8
-15 0 -169 -76 -245 -122 -29 -17 -55 -31 -57 -31 -8 0 -181 -123 -250 -178
-151 -121 -297 -267 -407 -407 -26 -33 -54 -68 -62 -77 -9 -10 -16 -22 -16
-27 0 -5 -3 -11 -7 -13 -16 -7 -157 -232 -170 -270 -3 -10 -9 -18 -14 -18 -5
0 -8 -3 -7 -7 1 -5 -18 -48 -41 -98 -68 -143 -70 -149 -65 -157 3 -4 1 -8 -4
-8 -6 0 -13 -7 -16 -16 -4 -9 -2 -13 5 -8 6 3 3 -6 -7 -22 -11 -15 -18 -31
-18 -34 1 -3 -2 -16 -7 -28 -5 -13 -7 -28 -3 -33 3 -5 1 -9 -3 -9 -7 0 -45
-121 -58 -185 -2 -11 -10 -51 -18 -90 -9 -38 -18 -92 -21 -120 -4 -27 -11 -81
-16 -120 -5 -38 -7 -171 -5 -295 3 -219 5 -245 25 -360 5 -30 12 -71 15 -90 3
-19 10 -51 15 -70 5 -19 11 -46 14 -60 3 -14 12 -46 20 -72 8 -27 12 -48 9
-48 -3 0 2 -11 11 -25 9 -14 14 -25 11 -25 -4 0 2 -21 31 -95 4 -11 8 -22 9
-25 5 -16 20 -51 41 -97 12 -29 20 -53 16 -53 -4 0 -2 -4 3 -8 10 -6 75 -135
75 -147 0 -3 4 -11 10 -18 6 -6 35 -52 66 -102 61 -99 156 -234 191 -272 13
-13 23 -26 23 -29 0 -18 299 -314 317 -314 7 0 13 -4 13 -9 0 -14 180 -147
285 -212 121 -75 262 -149 269 -142 3 4 6 1 6 -5 0 -7 6 -12 14 -12 8 0 31 -9
53 -19 42 -21 169 -71 193 -76 8 -2 16 -4 18 -5 1 -2 7 -4 12 -5 6 -1 11 -3
13 -5 1 -1 10 -3 20 -6 27 -6 41 -11 57 -17 19 -7 174 -44 215 -51 17 -2 44
-7 60 -10 122 -23 222 -30 420 -31 210 0 299 7 450 35 28 5 62 12 77 14 52 9
203 48 208 55 3 3 12 7 20 8 36 4 228 70 267 92 10 6 60 30 110 55 318 152
638 406 851 671 31 39 63 76 71 83 8 6 11 12 5 12 -5 0 -4 4 2 8 15 10 123
172 165 247 18 33 37 62 41 63 4 2 8 10 8 19 0 8 8 27 18 41 10 15 33 63 51
107 18 44 39 94 46 110 15 34 65 181 70 205 2 8 8 27 14 43 6 15 8 27 6 27 -2
0 0 11 5 25 5 14 12 36 14 48 2 12 9 43 15 70 6 26 14 64 17 85 3 20 10 64 16
97 14 80 19 511 7 605 -5 41 -16 111 -24 155 -12 71 -17 94 -30 155 -2 8 -4
15 -5 15 -1 0 -3 9 -4 20 -2 18 -30 120 -42 155 -3 8 -5 15 -4 15 2 0 -11 36
-36 100 -4 11 -8 22 -9 25 -19 56 -71 170 -119 264 -71 137 -169 289 -279 430
-70 90 -232 257 -322 331 -26 22 -53 45 -59 50 -6 6 -42 34 -81 62 -38 29 -78
59 -87 67 -10 9 -22 16 -27 16 -4 0 -19 9 -32 19 -29 22 -74 49 -149 89 -30
16 -85 45 -122 65 -38 20 -68 34 -68 31 0 -2 -11 3 -24 12 -14 8 -26 15 -28
13 -2 -1 -19 5 -38 14 -19 8 -64 25 -100 37 -36 12 -74 26 -85 31 -26 11 -260
70 -300 75 -16 2 -41 6 -55 9 -14 3 -43 7 -65 10 -22 3 -56 8 -75 11 -39 6
-456 15 -461 10z"/>
</g>
</svg>
