<?xml version="1.0" encoding="UTF-8"?>
<svg xmlns="http://www.w3.org/2000/svg" xmlns:xlink="http://www.w3.org/1999/xlink" width="64pt" height="46pt" viewBox="0 0 64 46" version="1.1">
<g id="surface1">
<path style=" stroke:none;fill-rule:nonzero;fill:rgb(0%,0%,0%);fill-opacity:1;" d="M 35.851562 0.03125 C 33.953125 0.269531 32.355469 1.585938 31.75 3.40625 C 31.171875 5.148438 31.59375 6.984375 32.894531 8.355469 C 33.421875 8.902344 33.875 9.214844 34.570312 9.492188 C 35.300781 9.789062 35.453125 9.8125 36.375 9.8125 C 37.359375 9.8125 37.699219 9.738281 38.484375 9.367188 C 39.09375 9.074219 39.410156 8.859375 39.820312 8.453125 C 40.609375 7.660156 41.121094 6.59375 41.300781 5.359375 C 41.375 4.851562 41.328125 4.398438 41.121094 3.675781 C 40.863281 2.796875 40.285156 1.8125 39.71875 1.3125 C 39.15625 0.808594 38.285156 0.347656 37.519531 0.152344 C 37.136719 0.0507812 36.214844 -0.015625 35.851562 0.03125 Z M 35.851562 0.03125 "/>
<path style=" stroke:none;fill-rule:nonzero;fill:rgb(0%,0%,0%);fill-opacity:1;" d="M 3.550781 4.46875 C 2.53125 4.585938 1.703125 5 0.941406 5.78125 C 0.269531 6.46875 0.0351562 7.140625 0.0351562 8.363281 C 0.0351562 9.015625 0.0507812 9.179688 0.164062 9.613281 C 0.324219 10.214844 0.515625 10.636719 0.875 11.171875 C 1.910156 12.730469 3.511719 13.808594 5.324219 14.167969 C 5.796875 14.261719 7.191406 14.261719 7.523438 14.167969 C 8.246094 13.972656 8.636719 13.796875 9.183594 13.429688 L 9.605469 13.148438 L 9.890625 13.3125 C 10.046875 13.398438 10.515625 13.703125 10.925781 13.984375 C 11.339844 14.261719 11.910156 14.625 12.199219 14.789062 C 13.320312 15.410156 14.484375 16.089844 15.898438 16.949219 C 16.710938 17.441406 17.5 17.902344 17.648438 17.972656 C 17.976562 18.125 18.421875 18.144531 18.714844 18.011719 L 18.898438 17.933594 L 18.898438 17.554688 C 18.898438 17.34375 18.910156 17.175781 18.925781 17.175781 C 18.941406 17.175781 19.113281 17.203125 19.316406 17.246094 C 20.648438 17.511719 22.15625 17.625 24.300781 17.625 C 25.949219 17.625 26.84375 17.566406 27.824219 17.402344 C 30.800781 16.882812 31.59375 16.707031 32.476562 16.355469 C 33.476562 15.960938 34.179688 15.390625 34.488281 14.730469 C 34.679688 14.316406 34.703125 13.625 34.550781 13.164062 C 34.34375 12.550781 33.984375 12.171875 33.453125 12.023438 C 32.949219 11.871094 32.003906 12.023438 31.125 12.390625 C 30.960938 12.460938 30.449219 12.707031 29.988281 12.9375 C 27.59375 14.140625 25.71875 14.683594 22.601562 15.074219 C 21.898438 15.160156 18.96875 15.160156 18.226562 15.074219 C 17.011719 14.929688 15.988281 14.757812 15.171875 14.5625 C 14.679688 14.441406 13.976562 14.097656 12.675781 13.332031 C 11.945312 12.902344 10.769531 12.167969 10.554688 12.007812 L 10.449219 11.925781 L 10.570312 11.324219 C 10.761719 10.398438 10.765625 10.308594 10.675781 9.808594 C 10.566406 9.15625 10.429688 8.746094 10.125 8.109375 C 9.261719 6.328125 7.429688 4.921875 5.476562 4.542969 C 4.980469 4.449219 4.039062 4.414062 3.550781 4.46875 Z M 3.550781 4.46875 "/>
<path style=" stroke:none;fill-rule:nonzero;fill:rgb(0%,0%,0%);fill-opacity:1;" d="M 47.824219 10.667969 C 47.300781 10.75 46.550781 10.972656 46.230469 11.132812 C 45.828125 11.335938 45.570312 11.574219 45.421875 11.875 C 45.308594 12.109375 45.289062 12.199219 45.316406 12.410156 C 45.351562 12.699219 45.574219 13.167969 45.859375 13.550781 C 46.390625 14.261719 47.316406 14.625 49.824219 15.117188 C 52.535156 15.648438 53.386719 15.882812 54.410156 16.402344 C 56.09375 17.25 56.851562 18.378906 56.851562 20.046875 C 56.851562 22.414062 56.03125 25 54.679688 26.863281 L 54.484375 27.132812 L 54.726562 27.101562 C 55.074219 27.050781 55.398438 26.851562 55.941406 26.34375 C 56.210938 26.09375 56.605469 25.730469 56.820312 25.535156 C 58.066406 24.421875 59.09375 22.683594 59.550781 20.925781 C 59.921875 19.476562 59.949219 17.792969 59.621094 16.550781 C 59.296875 15.316406 58.148438 13.945312 56.648438 12.988281 C 55.050781 11.960938 53.339844 11.304688 50.851562 10.742188 C 50.25 10.605469 48.464844 10.5625 47.824219 10.667969 Z M 47.824219 10.667969 "/>
<path style=" stroke:none;fill-rule:nonzero;fill:rgb(0%,0%,0%);fill-opacity:1;" d="M 5.234375 16.269531 C 4.671875 16.417969 4.179688 16.816406 3.914062 17.367188 C 3.730469 17.730469 3.726562 17.765625 3.726562 18.273438 C 3.726562 18.746094 3.738281 18.835938 3.859375 19.097656 C 4.25 19.9375 5.195312 20.445312 6.058594 20.289062 C 6.71875 20.167969 7.289062 19.730469 7.570312 19.132812 C 7.714844 18.832031 7.726562 18.765625 7.726562 18.253906 C 7.726562 17.753906 7.710938 17.675781 7.585938 17.414062 C 7.371094 16.980469 7.050781 16.652344 6.625 16.441406 C 6.308594 16.285156 6.199219 16.253906 5.839844 16.242188 C 5.613281 16.230469 5.339844 16.246094 5.234375 16.269531 Z M 5.234375 16.269531 "/>
<path style=" stroke:none;fill-rule:nonzero;fill:rgb(0%,0%,0%);fill-opacity:1;" d="M 45.953125 23.582031 C 45.105469 23.808594 44.585938 24.417969 44.289062 25.511719 C 44.183594 25.90625 44.175781 26.03125 44.179688 27.242188 C 44.179688 28.4375 44.195312 28.621094 44.320312 29.351562 C 44.464844 30.191406 44.765625 31.578125 44.949219 32.265625 C 45.011719 32.484375 45.089844 32.777344 45.125 32.917969 C 45.609375 34.730469 46.515625 37.046875 47.523438 39.070312 C 47.976562 39.96875 48.175781 40.253906 48.769531 40.859375 C 49.789062 41.878906 51.164062 42.621094 53.101562 43.207031 C 53.820312 43.421875 54.101562 43.488281 56.574219 44.046875 C 57.453125 44.242188 58.253906 44.421875 58.351562 44.441406 C 58.445312 44.464844 59.246094 44.644531 60.125 44.84375 C 62 45.265625 62.445312 45.347656 62.949219 45.347656 C 63.398438 45.347656 63.605469 45.296875 63.835938 45.117188 L 64.015625 44.980469 L 63.894531 44.914062 C 63.769531 44.851562 62.316406 44.359375 60.066406 43.621094 C 58.519531 43.113281 57.539062 42.726562 56.425781 42.1875 C 53.203125 40.632812 51.589844 39.085938 50.878906 36.875 C 50.425781 35.453125 50.210938 33.957031 50.101562 31.410156 C 49.96875 28.453125 49.886719 27.367188 49.699219 26.488281 C 49.496094 25.484375 49.085938 24.671875 48.546875 24.183594 C 48.234375 23.898438 47.695312 23.628906 47.304688 23.550781 C 46.929688 23.480469 46.273438 23.496094 45.953125 23.582031 Z M 45.953125 23.582031 "/>
<path style=" stroke:none;fill-rule:nonzero;fill:rgb(0%,0%,0%);fill-opacity:1;" d="M 40.351562 23.910156 C 39.136719 24.183594 37.496094 25.042969 35.675781 26.359375 C 34.953125 26.882812 34.488281 27.242188 32.726562 28.648438 C 32.066406 29.175781 28.914062 31.6875 25.726562 34.230469 C 18.261719 40.179688 16.433594 41.636719 14.175781 43.445312 C 12.140625 45.074219 12.070312 45.132812 11.441406 45.472656 C 11.195312 45.601562 11 45.722656 11.003906 45.738281 C 11.003906 45.757812 11.070312 45.824219 11.148438 45.890625 L 11.289062 46 L 11.839844 45.804688 C 13.429688 45.230469 14.15625 44.871094 17.875 42.8125 C 19.359375 41.988281 21.933594 40.570312 23.601562 39.65625 C 31.453125 35.355469 36.035156 32.808594 40.101562 30.472656 C 41.363281 29.75 42.496094 28.976562 42.890625 28.574219 C 43.628906 27.824219 43.980469 26.871094 43.800781 26.109375 C 43.703125 25.703125 43.375 24.980469 43.15625 24.683594 C 42.929688 24.386719 42.601562 24.15625 42.171875 24 C 41.941406 23.914062 41.734375 23.890625 41.226562 23.875 C 40.871094 23.863281 40.476562 23.882812 40.351562 23.910156 Z M 40.351562 23.910156 "/>
</g>
</svg>
